<?xml version="1.0" encoding="UTF-8" ?>
<!DOCTYPE svg PUBLIC "-//W3C//DTD SVG 1.1//EN" "http://www.w3.org/Graphics/SVG/1.1/DTD/svg11.dtd">
<svg width="13pt" height="13pt" viewBox="0 0 13 13" version="1.1" xmlns="http://www.w3.org/2000/svg">
<path fill="#ffffff" d=" M 0.00 0.00 L 13.00 0.00 L 13.00 4.78 C 12.16 2.62 10.45 1.13 8.43 0.09 C 7.50 0.14 5.65 0.22 4.73 0.26 C 4.10 0.47 2.83 0.90 2.19 1.11 C 1.21 2.75 0.11 4.42 0.00 6.39 L 0.00 0.00 Z" />
<path fill="#000000" d=" M 2.19 1.11 C 2.83 0.90 4.10 0.47 4.73 0.26 C 5.65 0.22 7.50 0.14 8.43 0.09 C 10.45 1.13 12.16 2.62 13.00 4.78 L 13.00 8.06 C 12.18 10.36 10.44 12.04 8.23 13.00 L 4.94 13.00 C 2.06 12.08 0.08 9.54 0.00 6.50 L 0.00 6.39 C 0.11 4.42 1.21 2.75 2.19 1.11 Z" />
<path fill="#ffffff" d=" M 7.05 1.90 C 8.70 2.82 10.65 3.80 10.95 5.91 C 11.64 8.51 9.20 10.48 7.03 11.27 C 6.98 8.15 6.98 5.02 7.05 1.90 Z" />
<path fill="#ffffff" d=" M 0.00 6.50 C 0.08 9.54 2.06 12.08 4.94 13.00 L 0.00 13.00 L 0.00 6.50 Z" />
<path fill="#ffffff" d=" M 8.23 13.00 C 10.44 12.04 12.18 10.36 13.00 8.06 L 13.00 13.00 L 8.23 13.00 Z" />
</svg>
