<?xml version="1.0" encoding="UTF-8" ?>
<!DOCTYPE svg PUBLIC "-//W3C//DTD SVG 1.1//EN" "http://www.w3.org/Graphics/SVG/1.1/DTD/svg11.dtd">
<svg width="80pt" height="68pt" viewBox="0 0 80 68" version="1.1" xmlns="http://www.w3.org/2000/svg">
<path fill="#ffffff" d=" M 0.00 0.00 L 38.64 0.00 C 33.21 0.47 28.06 5.38 28.67 11.06 C 28.99 16.12 33.69 19.90 38.48 20.62 C 38.50 22.91 38.50 25.20 38.50 27.49 C 25.67 27.50 12.83 27.51 0.00 27.49 L 0.00 0.00 Z" />
<path fill="#000000" d=" M 38.64 0.00 L 41.40 0.00 C 46.91 0.34 52.11 5.32 51.50 11.05 C 51.25 15.93 46.96 19.42 42.51 20.59 C 42.50 22.89 42.50 25.19 42.51 27.49 C 55.00 27.50 67.50 27.50 80.00 27.50 L 80.00 27.63 C 67.05 39.83 53.95 51.87 40.99 64.05 C 52.64 63.86 64.22 59.96 73.51 52.88 C 74.23 53.97 74.95 55.07 75.68 56.16 C 66.67 63.12 55.62 67.09 44.30 68.00 L 36.83 68.00 C 25.88 67.63 15.07 64.40 5.88 58.40 C 6.53 57.24 7.18 56.08 7.82 54.92 C 16.98 61.00 27.95 64.06 38.91 64.04 C 25.96 51.91 12.93 39.86 0.00 27.71 L 0.00 27.49 C 12.83 27.51 25.67 27.50 38.50 27.49 C 38.50 25.20 38.50 22.91 38.48 20.62 C 33.69 19.90 28.99 16.12 28.67 11.06 C 28.06 5.38 33.21 0.47 38.64 0.00 Z" />
<path fill="#ffffff" d=" M 41.40 0.00 L 80.00 0.00 L 80.00 27.50 C 67.50 27.50 55.00 27.50 42.51 27.49 C 42.50 25.19 42.50 22.89 42.51 20.59 C 46.96 19.42 51.25 15.93 51.50 11.05 C 52.11 5.32 46.91 0.34 41.40 0.00 Z" />
<path fill="#ffffff" d=" M 38.13 4.13 C 42.73 2.68 48.96 6.86 47.29 12.00 C 45.29 17.55 36.71 18.26 33.63 13.32 C 30.80 9.78 34.25 4.85 38.13 4.13 Z" />
<path fill="#ffffff" d=" M 0.00 27.71 C 12.93 39.86 25.96 51.91 38.91 64.04 C 27.95 64.06 16.98 61.00 7.82 54.92 C 7.18 56.08 6.53 57.24 5.88 58.40 C 15.07 64.40 25.88 67.63 36.83 68.00 L 0.00 68.00 L 0.00 27.71 Z" />
<path fill="#ffffff" d=" M 40.99 64.05 C 53.95 51.87 67.05 39.83 80.00 27.63 L 80.00 68.00 L 44.30 68.00 C 55.62 67.09 66.67 63.12 75.68 56.16 C 74.95 55.07 74.23 53.97 73.51 52.88 C 64.22 59.96 52.64 63.86 40.99 64.05 Z" />
<path fill="#ffffff" d=" M 20.06 35.49 C 33.34 35.51 46.61 35.50 59.89 35.50 C 53.26 41.70 46.60 47.85 40.01 54.08 C 33.32 47.93 26.70 41.71 20.06 35.49 Z" />
</svg>
