<?xml version="1.0" encoding="UTF-8" ?>
<!DOCTYPE svg PUBLIC "-//W3C//DTD SVG 1.1//EN" "http://www.w3.org/Graphics/SVG/1.1/DTD/svg11.dtd">
<svg width="80pt" height="41pt" viewBox="0 0 80 41" version="1.1" xmlns="http://www.w3.org/2000/svg">
<path fill="#000000" d=" M 0.00 0.00 L 80.00 0.00 L 80.00 0.72 C 66.88 12.96 53.79 25.22 40.60 37.39 C 52.37 36.85 64.11 33.18 73.51 25.96 C 74.24 27.05 74.97 28.15 75.69 29.24 C 66.94 35.93 56.30 39.95 45.35 41.00 L 34.81 41.00 C 24.55 40.42 14.53 37.03 5.92 31.46 C 6.54 30.32 7.15 29.17 7.77 28.02 C 17.12 34.19 28.23 36.98 39.34 37.38 C 26.11 25.31 13.11 12.98 0.00 0.77 L 0.00 0.00 Z" />
<path fill="#ffffff" d=" M 0.00 0.77 C 13.11 12.98 26.11 25.31 39.34 37.38 C 28.23 36.98 17.12 34.19 7.77 28.02 C 7.15 29.17 6.54 30.32 5.92 31.46 C 14.53 37.03 24.55 40.42 34.81 41.00 L 0.00 41.00 L 0.00 0.77 Z" />
<path fill="#ffffff" d=" M 40.60 37.39 C 53.79 25.22 66.88 12.96 80.00 0.72 L 80.00 41.00 L 45.35 41.00 C 56.30 39.95 66.94 35.93 75.69 29.24 C 74.97 28.15 74.24 27.05 73.51 25.96 C 64.11 33.18 52.37 36.85 40.60 37.39 Z" />
<path fill="#ffffff" d=" M 20.51 9.02 C 33.47 8.98 46.43 9.00 59.39 9.01 C 52.91 15.06 46.47 21.15 39.93 27.13 C 33.48 21.07 27.01 15.03 20.51 9.02 Z" />
</svg>
