<?xml version="1.0" encoding="UTF-8" ?>
<!DOCTYPE svg PUBLIC "-//W3C//DTD SVG 1.1//EN" "http://www.w3.org/Graphics/SVG/1.1/DTD/svg11.dtd">
<svg width="80pt" height="65pt" viewBox="0 0 80 65" version="1.1" xmlns="http://www.w3.org/2000/svg">
<path fill="#ffffff" d=" M 0.00 0.00 L 38.64 0.00 C 33.52 0.47 28.64 4.79 28.63 10.12 C 28.42 15.57 33.37 19.90 38.48 20.62 C 38.50 22.91 38.50 25.20 38.50 27.49 C 25.66 27.50 12.83 27.50 0.00 27.49 L 0.00 0.00 Z" />
<path fill="#000000" d=" M 38.64 0.00 L 41.42 0.00 C 46.92 0.35 52.10 5.31 51.50 11.02 C 51.26 15.91 46.97 19.43 42.51 20.58 C 42.50 22.89 42.50 25.19 42.51 27.49 C 55.00 27.50 67.50 27.50 80.00 27.50 L 80.00 27.63 C 66.70 40.14 53.29 52.53 39.94 65.00 L 39.94 65.00 C 26.64 52.56 13.28 40.17 0.00 27.71 L 0.00 27.49 C 12.83 27.50 25.66 27.50 38.50 27.49 C 38.50 25.20 38.50 22.91 38.48 20.62 C 33.37 19.90 28.42 15.57 28.63 10.12 C 28.64 4.79 33.52 0.47 38.64 0.00 Z" />
<path fill="#ffffff" d=" M 41.42 0.00 L 80.00 0.00 L 80.00 27.50 C 67.50 27.50 55.00 27.50 42.51 27.49 C 42.50 25.19 42.50 22.89 42.51 20.58 C 46.97 19.43 51.26 15.91 51.50 11.02 C 52.10 5.31 46.92 0.35 41.42 0.00 Z" />
<path fill="#ffffff" d=" M 38.12 4.13 C 42.72 2.68 48.96 6.86 47.29 12.00 C 45.29 17.55 36.71 18.26 33.63 13.32 C 30.80 9.78 34.24 4.86 38.12 4.13 Z" />
<path fill="#ffffff" d=" M 0.00 27.71 C 13.28 40.17 26.64 52.56 39.94 65.00 L 0.00 65.00 L 0.00 27.71 Z" />
<path fill="#ffffff" d=" M 39.94 65.00 C 53.29 52.53 66.70 40.14 80.00 27.63 L 80.00 65.00 L 39.94 65.00 Z" />
<path fill="#ffffff" d=" M 20.06 35.49 C 33.34 35.51 46.61 35.50 59.89 35.50 C 53.26 41.70 46.60 47.85 40.01 54.08 C 33.32 47.94 26.70 41.71 20.06 35.49 Z" />
</svg>
